<?xml version="1.0" encoding="UTF-8"?>
<svg width="47px" height="47px" viewBox="0 0 47 47" version="1.1" xmlns="http://www.w3.org/2000/svg" xmlns:xlink="http://www.w3.org/1999/xlink">
    <!-- Generator: Sketch 52.5 (67469) - http://www.bohemiancoding.com/sketch -->
    <title>icon_xiafa</title>
    <desc>Created with Sketch.</desc>
    <g id="Mercury" stroke="none" stroke-width="1" fill="#fff" fill-rule="evenodd">
        <g id="Artboard" transform="translate(-681.000000, -336.000000)" fill="#fff" fill-rule="nonzero">
            <g id="icon_xiafa" transform="translate(681.000000, 336.000000)">
                <path d="M46.8989247,28.0799226 C46.8989247,21.853686 44.3340387,13.711871 37.1956989,10.7895828 L37.1956989,7.6699957 L39.3182796,5.97193118 C39.5100194,5.81839785 39.6216065,5.58602581 39.6215054,5.3404129 L39.6215054,0.81224086 C39.6215054,0.365690323 39.2594538,0.00363870968 38.8129032,0.00363870968 L36.3870968,0.00363870968 C36.1726151,0.00363870968 35.967028,0.0889462366 35.8154151,0.24055914 L34.7698925,1.28608172 L33.7243699,0.24055914 C33.572757,0.0889462366 33.3671699,0.00363870968 33.1526882,0.00363870968 L29.9182796,0.00363870968 C29.7037978,0.00363870968 29.4982108,0.0889462366 29.3465978,0.24055914 L28.3010753,1.28608172 L27.2555527,0.24055914 C27.1039398,0.0889462366 26.8983527,0.00363870968 26.683871,0.00363870968 L24.2580645,0.00363870968 C23.811514,0.00363870968 23.4494624,0.365690323 23.4494624,0.81224086 L23.4494624,5.3404129 C23.4493613,5.58602581 23.5609484,5.81839785 23.7526882,5.97193118 L25.8752688,7.6699957 L25.8752688,10.7895828 C18.736929,13.711871 16.172043,21.8569204 16.172043,28.0799226 C16.1568817,29.5399548 16.3836946,30.9925075 16.8431828,32.3784516 C16.4954839,32.3590452 16.1453591,32.3477247 15.796043,32.3477247 L13.7462366,32.3477247 C13.7462366,31.9011742 13.3841849,31.5391226 12.9376344,31.5391226 L6.4688172,31.5391226 C6.02226667,31.5391226 5.66021505,31.9011742 5.66021505,32.3477247 L0,32.3477247 L0,33.964929 L5.66021505,33.964929 L5.66021505,42.0509505 L0,42.0509505 L0,43.6681548 L5.66021505,43.6681548 C5.66021505,44.1147054 6.02226667,44.476757 6.4688172,44.476757 L12.9376344,44.476757 C13.3841849,44.476757 13.7462366,44.1147054 13.7462366,43.6681548 L13.7462366,43.3600774 L19.7832602,45.8667441 C23.074271,47.210843 26.7535118,47.2516774 30.0735312,45.980757 L42.5648172,41.2172817 C43.3047892,40.9360903 43.9003247,40.3685527 44.2167914,39.6429333 C44.7025591,38.5591032 44.4964667,37.2902043 43.6928172,36.4158022 C45.869372,34.2008387 47.0302215,31.1826301 46.8989247,28.0799226 Z M12.1290323,42.8595527 L7.27741935,42.8595527 L7.27741935,33.1563269 L12.1290323,33.1563269 L12.1290323,42.8595527 Z M25.0666667,4.95228387 L25.0666667,1.62084301 L26.3491097,1.62084301 L27.7293935,3.00112688 C28.0451527,3.31678495 28.5569978,3.31678495 28.872757,3.00112688 L30.2530409,1.62084301 L32.8179269,1.62084301 L34.1982108,3.00112688 C34.5139699,3.31678495 35.0258151,3.31678495 35.3415742,3.00112688 L36.7218581,1.62084301 L38.0043011,1.62084301 L38.0043011,4.95228387 L36.1032774,6.47245591 L26.9660731,6.47245591 L25.0666667,4.95228387 Z M35.5784946,8.08966022 L35.5784946,10.5154667 L27.4924731,10.5154667 L27.4924731,8.08966022 L35.5784946,8.08966022 Z M42.7338151,38.9912 C42.5909957,39.3213118 42.3210237,39.5799634 41.9850495,39.7084301 L29.4937634,44.4710968 C26.5586387,45.5954581 23.3056323,45.560486 20.395372,44.3732559 L13.7462366,41.6086452 L13.7462366,33.964929 L15.796043,33.964929 C18.4771656,33.9680624 21.1210925,34.5922022 23.5206194,35.7883269 C24.3129484,36.1838344 25.1862387,36.390028 26.0717591,36.3907355 L32.344086,36.3907355 C33.0139118,36.3950817 33.5534516,36.9415957 33.5491054,37.6114215 C33.5454667,38.1724903 33.1574387,38.6579548 32.6109247,38.7850065 C32.5049978,38.7947097 32.4014968,38.8165419 32.2939527,38.8165419 L22.6408602,38.8165419 L22.6408602,40.4337462 L32.2939527,40.4337462 C32.3109333,40.4337462 32.3271054,40.4337462 32.344086,40.4337462 C32.3602581,40.4337462 32.3756215,40.4288946 32.3926022,40.4288946 C33.034329,40.4185849 33.668071,40.2842559 34.2588559,40.0334882 L41.0195785,37.1637591 C41.3416043,37.0262968 41.7058796,37.0262968 42.0279054,37.1637591 C42.3628688,37.3051634 42.6256645,37.5769548 42.7556473,37.9165677 C42.8930086,38.2632559 42.8851247,38.6504753 42.7338151,38.9912 Z M42.2518882,35.5465548 C41.6333075,35.3807914 40.977228,35.425972 40.3872516,35.6751226 L35.1442753,37.9012043 C35.1595376,37.8026559 35.1695441,37.7032989 35.1741935,37.6036387 C35.1741935,36.0406108 33.907114,34.7735312 32.344086,34.7735312 L26.0717591,34.7735312 C25.4372086,34.7726215 24.8114516,34.6247484 24.2435097,34.3417376 C22.4885398,33.4691548 20.608843,32.8739226 18.6714323,32.5773677 C18.0671032,31.1561484 17.7666065,29.6241505 17.7892473,28.0799226 C17.7892473,22.2579871 20.1673462,14.6158882 26.8455914,12.132671 L36.2253763,12.132671 C42.9036215,14.6158882 45.2817204,22.2579871 45.2817204,28.0799226 C45.4175656,30.8930495 44.3095785,33.6235978 42.2518882,35.5465548 Z" id="Shape"></path>
                <rect id="Rectangle-path" x="8.89462366" y="39.6251441" width="1.6172043" height="1.6172043"></rect>
                <path d="M33.2529548,23.1733247 L30.3298581,22.1989591 C30.0146043,22.0955591 29.8427763,21.7561484 29.9461763,21.4408946 C30.0273398,21.1934624 30.2586,21.026486 30.519071,21.0272946 L32.5518968,21.0272946 C32.883828,21.0276989 33.1526882,21.2969634 33.1526882,21.6288946 L33.1526882,22.1593376 L34.7698925,22.1593376 L34.7698925,21.6288946 C34.7689828,20.4041656 33.7766258,19.4114043 32.5518968,19.4100903 L32.344086,19.4100903 L32.344086,17.792886 L30.7268817,17.792886 L30.7268817,19.4100903 L30.519071,19.4100903 C29.2941398,19.4092817 28.3003677,20.4016387 28.2995591,21.6265699 C28.2989527,22.5825398 28.9108624,23.4313699 29.8180129,23.7328774 L32.7411097,24.707243 C33.0563634,24.810643 33.2281914,25.1500538 33.1247914,25.4653075 C33.043628,25.7127398 32.8123677,25.8797161 32.5518968,25.8789075 L30.519071,25.8789075 C30.1871398,25.8785032 29.9182796,25.6092387 29.9182796,25.2773075 L29.9182796,24.7468645 L28.3010753,24.7468645 L28.3010753,25.2773075 C28.3019849,26.5020366 29.2943419,27.4947978 30.519071,27.4961118 L30.7268817,27.4961118 L30.7268817,29.1133161 L32.344086,29.1133161 L32.344086,27.4961118 L32.5518968,27.4961118 C33.776828,27.4969204 34.7706,26.5045634 34.7714086,25.2796323 C34.7721161,24.3236624 34.1601054,23.4748323 33.2529548,23.1733247 Z" id="Shape"></path>
                <path d="M31.5354839,14.5584774 C26.6231247,14.5584774 22.6408602,18.5407419 22.6408602,23.4531011 C22.6466215,28.3630344 26.6255505,32.3419634 31.5354839,32.3477247 C36.447843,32.3477247 40.4301075,28.3654602 40.4301075,23.4531011 C40.4301075,18.5407419 36.447843,14.5584774 31.5354839,14.5584774 Z M31.5354839,30.7305204 C27.5163269,30.7305204 24.2580645,27.4722581 24.2580645,23.4531011 C24.2625118,19.4357634 27.5181462,16.180129 31.5354839,16.1756817 C35.5547419,16.1756817 38.8129032,19.433843 38.8129032,23.4531011 C38.8129032,27.4723591 35.5547419,30.7305204 31.5354839,30.7305204 Z" id="Shape"></path>
            </g>
        </g>
    </g>
</svg>