<?xml version="1.0" encoding="UTF-8"?>
<svg width="43px" height="43px" viewBox="0 0 43 43" version="1.1" xmlns="http://www.w3.org/2000/svg" xmlns:xlink="http://www.w3.org/1999/xlink">
    <!-- Generator: Sketch 52.5 (67469) - http://www.bohemiancoding.com/sketch -->
    <title>icon_balance</title>
    <desc>Created with Sketch.</desc>
    <g id="Mercury" stroke="none" stroke-width="1" fill="none" fill-rule="evenodd">
        <g id="Artboard" transform="translate(-390.000000, -338.000000)" fill="#0BC2A9" fill-rule="nonzero">
            <g id="icon_balance" transform="translate(390.000000, 338.000000)">
                <path d="M0.812910848,11.8780338 C0.796982759,11.9630129 0.7880051,12.0491289 0.785109124,12.1352448 L0.785109124,13.9041746 C0.787425934,14.633176 1.24876078,15.284872 1.9446727,15.5409462 L1.9446727,18.1437513 C1.94785833,19.0151425 2.646087,19.7313544 3.53284619,19.772565 L3.53284619,34.8093208 C2.646087,34.8508156 1.94785833,35.5670276 1.9446727,36.4381345 L1.9446727,39.0332659 C1.24731279,39.2961612 0.786267529,39.9526888 0.785109124,40.6853849 L0.785109124,42.415662 C0.785109124,42.7382416 1.05212148,43 1.38081897,43 L41.5462015,43 C41.874899,43 42.1416218,42.7382416 42.1416218,42.415662 L42.1416218,40.6853849 C42.1404634,39.9524045 41.6794181,39.295877 40.9823478,39.0332659 L40.9823478,36.4227871 C40.9791622,35.5513959 40.2806438,34.835184 39.3941743,34.7939734 L39.3941743,19.772565 C40.2806438,19.7313544 40.9791622,19.0151425 40.9823478,18.1437513 L40.9823478,15.5409462 C41.6779701,15.284872 42.139305,14.633176 42.1416218,13.9041746 L42.1416218,12.1468975 C42.1390154,12.0607815 42.1297481,11.9746655 42.11382,11.8896864 C42.4132678,12.0198551 42.7633958,11.8874127 42.8960331,11.5935385 C43.0286705,11.2999485 42.8937163,10.9563373 42.5945582,10.8258844 L21.7374731,0.0676422741 C21.5634227,-0.0224526937 21.3554889,-0.0224526937 21.1814386,0.0676422741 L0.324643031,10.8142317 C0.03359375,10.9651478 -0.0779027293,11.3184222 0.0752963362,11.6040543 C0.215463362,11.8649601 0.531707974,11.9826234 0.812910848,11.8780338 Z M3.1358028,16.5538745 L3.1358028,15.6537781 L10.0045662,15.6537781 L10.0045662,16.5462008 L3.1358028,16.5538745 Z M18.4299367,19.776544 L18.4299367,34.8093208 C17.5431775,34.8508156 16.8449489,35.5670276 16.8417632,36.4381345 L16.8417632,38.9241289 L11.1875876,38.9241289 L11.1875876,36.4381345 C11.1844019,35.5670276 10.4861732,34.8508156 9.59941408,34.8093208 L9.59941408,19.772565 C10.4861732,19.7313544 11.1844019,19.0151425 11.1875876,18.1437513 L11.1875876,15.6537781 L16.8336544,15.6537781 L16.8336544,18.1400565 C16.8351024,19.0128688 17.5339103,19.730786 18.4221175,19.772565 L18.4299367,19.776544 Z M18.0328933,16.5538745 L18.0328933,15.6537781 L24.9019464,15.6537781 L24.9019464,16.5462008 L18.0328933,16.5538745 Z M33.3273168,19.776544 L33.3273168,34.8093208 C32.4405576,34.8508156 31.7420394,35.5670276 31.7388537,36.4381345 L31.7388537,38.9241289 L26.0849677,38.9241289 L26.0849677,36.4381345 C26.081782,35.5670276 25.3832637,34.8508156 24.4967942,34.8093208 L24.4967942,19.772565 C25.3832637,19.7313544 26.081782,19.0151425 26.0849677,18.1437513 L26.0849677,15.6537781 L31.7310345,15.6537781 L31.7310345,18.1400565 C31.7321929,19.0128688 32.4310008,19.730786 33.319208,19.772565 L33.3273168,19.776544 Z M32.9302734,16.5538745 L32.9302734,15.6537781 L39.7990369,15.6537781 L39.7990369,16.5462008 L32.9302734,16.5538745 Z M39.7990369,38.0319903 L39.7990369,38.9241289 L32.9221646,38.9241289 L32.9221646,38.0319903 L39.7990369,38.0319903 Z M24.9019464,38.0319903 L24.9019464,38.9241289 L18.0250741,38.9241289 L18.0250741,38.0319903 L24.9019464,38.0319903 Z M19.0175377,18.6152575 L18.5014682,18.6152575 C18.2382206,18.6152575 18.0250741,18.4060781 18.0250741,18.1477303 L18.0250741,17.7228347 L24.8938376,17.7228347 L24.8938376,18.1477303 C24.8938376,18.4060781 24.680691,18.6152575 24.4174434,18.6152575 L19.0175377,18.6152575 Z M23.3097185,19.7842177 L23.3097185,34.8016471 L19.6132476,34.8016471 L19.6132476,19.7842177 C19.6132476,19.7842177 23.3097185,19.7842177 23.3097185,19.7842177 Z M19.0175377,35.9706073 L24.4174434,35.9706073 C24.680691,35.9706073 24.8938376,36.1797867 24.8938376,36.4381345 L24.8938376,36.8630301 L18.0250741,36.8630301 L18.0250741,36.4381345 C18.0250741,36.1797867 18.2382206,35.9706073 18.5014682,35.9706073 L19.0175377,35.9706073 Z M9.99674706,38.0319903 L9.99674706,38.9241289 L3.12769397,38.9241289 L3.12769397,38.0319903 L9.99674706,38.0319903 Z M3.12769397,18.159383 L3.12767469,17.7228347 L9.99674706,17.7228347 L9.99674706,18.1477303 C9.99674706,18.4060781 9.7836005,18.6152575 9.52006329,18.6152575 L3.59221444,18.6152575 C3.33215244,18.6090049 3.12537716,18.3989729 3.12769397,18.1437513 L3.12769397,18.159383 Z M8.40857356,19.7958703 L8.40857356,34.8016471 L4.71586746,34.8016471 L4.71586746,19.7842177 L8.40857356,19.7958703 Z M3.12769397,36.4500713 C3.12769397,36.1914393 3.34084052,35.9822599 3.60408807,35.9822599 L9.52006329,35.9822599 C9.7836005,35.9822599 9.99674706,36.1914393 9.99674706,36.4500713 L9.99674706,36.8746827 L3.12769397,36.8746827 L3.12769397,36.4500713 Z M40.9504917,40.7089745 L40.9504917,41.8543451 L1.96841997,41.8543451 L1.96841997,40.7089745 C1.96841997,40.3753106 2.24383082,40.1047417 2.5838227,40.1047417 L40.3350889,40.1047417 C40.6701576,40.1047417 40.9441204,40.3682054 40.9504917,40.6970376 C40.9504917,40.6970376 40.9504917,40.7089745 40.9504917,40.7089745 Z M39.7912177,36.4500713 L39.7912177,36.8746827 L32.9221646,36.8746827 L32.9221646,36.4500713 C32.9221646,36.1914393 33.1353111,35.9822599 33.3985588,35.9822599 L39.3266972,35.9822599 C39.5806775,35.9885125 39.7848464,36.1888814 39.7912177,36.4381345 L39.7912177,36.4500713 Z M34.5103381,34.8132998 L34.5103381,19.7842177 L38.206809,19.7842177 L38.206809,34.8016471 L34.5103381,34.8132998 Z M39.7912177,18.159383 C39.7912177,18.4177308 39.5780711,18.6269102 39.3148236,18.6269102 L33.4026131,18.6269102 C33.1393656,18.6269102 32.926219,18.4177308 32.926219,18.159383 L32.926219,17.7228347 L39.7949825,17.7228347 L39.7912177,18.159383 Z M21.4594558,1.23660244 L39.1955078,10.3856414 L3.72340381,10.3856414 L21.4594558,1.23660244 Z M1.96841997,12.1468975 C1.96841997,11.8243179 2.23514282,11.5625595 2.56384023,11.5625595 L40.3550714,11.5625595 C40.6837688,11.5625595 40.9504917,11.8243179 40.9504917,12.1468975 L40.9504917,13.9161115 C40.9504917,14.2386911 40.6837688,14.5004495 40.3550714,14.5004495 L2.56384023,14.5004495 C2.23514282,14.5004495 1.96841997,14.2386911 1.96841997,13.9161115 L1.96841997,12.1468975 Z" id="Shape"></path>
            </g>
        </g>
    </g>
</svg>