<?xml version="1.0" encoding="UTF-8"?>
<svg width="46px" height="46px" viewBox="0 0 46 46" version="1.1" xmlns="http://www.w3.org/2000/svg" xmlns:xlink="http://www.w3.org/1999/xlink">
    <!-- Generator: Sketch 52.5 (67469) - http://www.bohemiancoding.com/sketch -->
    <title>icon_24hr</title>
    <desc>Created with Sketch.</desc>
    <g id="Mercury" stroke="none" stroke-width="1" fill="none" fill-rule="evenodd">
        <g id="Artboard" transform="translate(-816.000000, -336.000000)" fill="#0BC2A9" fill-rule="nonzero">
            <g id="icon_24hr" transform="translate(816.000000, 336.000000)">
                <path d="M15.5429688,9.25390625 C16.0388641,9.25390625 16.4414063,8.85136411 16.4414063,8.35546875 C16.4414063,8.24772642 16.4224548,8.14349365 16.3866577,8.04733272 C16.3866577,8.04733272 16.3866577,8.04733272 16.3866577,8.04627993 C16.2606659,7.70234682 15.930069,7.45703125 15.5429688,7.45703125 C15.0470734,7.45703125 14.6445312,7.85957339 14.6445312,8.35546875 C14.6445312,8.84750362 15.0446167,9.25390625 15.5429688,9.25390625 Z" id="Shape"></path>
                <path d="M23,46 C35.3900146,46 46,35.4258118 46,23 C46,10.5987549 35.4149323,0 23,0 C10.6099854,0 0,10.5741882 0,23 C0,35.4012451 10.5850677,46 23,46 Z M23,1.796875 C34.4933319,1.796875 44.203125,11.5066681 44.203125,23 C44.203125,34.4933319 34.4933319,44.203125 23,44.203125 C11.5066681,44.203125 1.796875,34.4933319 1.796875,23 C1.796875,11.5066681 11.5066681,1.796875 23,1.796875 Z" id="Shape"></path>
                <path d="M23,40.3398438 C32.3992005,40.3398438 40.3398438,32.3992005 40.3398438,23 C40.3398438,13.8296204 32.8171844,6.02865596 23.6541748,5.67349248 C22.0854187,5.60470577 20.1274567,5.79106138 18.6660919,6.14868164 C18.1842347,6.26660156 17.8890838,6.7530212 18.0070038,7.23487856 C18.1249237,7.71673584 18.6116943,8.01188657 19.0932007,7.89396665 C20.3829499,7.57846065 22.1843872,7.407196 23.5797729,7.46896358 C31.830307,7.78868101 38.5429688,14.7557831 38.5429688,23 C38.5429688,31.4253083 31.4249573,38.5429688 23,38.5429688 C14.7610474,38.5429688 7.79359438,31.8348694 7.46896358,23.5895996 C7.28085323,18.760849 9.41920473,13.9082337 13.0494538,10.9254914 C13.4330444,10.6106872 13.4884948,10.0446014 13.1736908,9.66101074 C12.8585358,9.277771 12.2924499,9.22196958 11.9092103,9.53712466 C7.8532562,12.8694153 5.46397398,18.2807464 5.67349248,23.65979 C6.03286748,32.784195 13.7934723,40.3398438 23,40.3398438 Z" id="Shape"></path>
                <path d="M23,9.5234375 C22.5037536,9.5234375 22.1015625,9.92562862 22.1015625,10.421875 L22.1015625,12.21875 C22.1015625,12.7149964 22.5037536,13.1171875 23,13.1171875 C23.4962464,13.1171875 23.8984375,12.7149964 23.8984375,12.21875 L23.8984375,10.421875 C23.8984375,9.92562862 23.4962464,9.5234375 23,9.5234375 Z" id="Shape"></path>
                <path d="M22.1015625,35.578125 C22.1015625,36.0743714 22.5037536,36.4765625 23,36.4765625 C23.4962464,36.4765625 23.8984375,36.0743714 23.8984375,35.578125 L23.8984375,33.78125 C23.8984375,33.2850036 23.4962464,32.8828125 23,32.8828125 C22.5037536,32.8828125 22.1015625,33.2850036 22.1015625,33.78125 L22.1015625,35.578125 Z" id="Shape"></path>
                <path d="M35.578125,23.8984375 C36.0743714,23.8984375 36.4765625,23.4962464 36.4765625,23 C36.4765625,22.5037536 36.0743714,22.1015625 35.578125,22.1015625 L33.78125,22.1015625 C33.2850036,22.1015625 32.8828125,22.5037536 32.8828125,23 C32.8828125,23.4962464 33.2850036,23.8984375 33.78125,23.8984375 L35.578125,23.8984375 Z" id="Shape"></path>
                <path d="M12.21875,22.1015625 L10.421875,22.1015625 C9.92562862,22.1015625 9.5234375,22.5037536 9.5234375,23 C9.5234375,23.4962464 9.92562862,23.8984375 10.421875,23.8984375 L12.21875,23.8984375 C12.7149964,23.8984375 13.1171875,23.4962464 13.1171875,23 C13.1171875,22.5037536 12.7149964,22.1015625 12.21875,22.1015625 Z" id="Shape"></path>
                <path d="M19.4431,24.0847931 C20.6893311,23.2642669 22.1015625,22.3342438 22.1015625,20.3046875 C22.1015625,18.3232116 20.4892884,16.7109375 18.5078125,16.7109375 C16.5263366,16.7109375 14.9140625,18.3232116 14.9140625,20.3046875 C14.9140625,20.8009339 15.3162536,21.203125 15.8125,21.203125 C16.3087464,21.203125 16.7109375,20.8009339 16.7109375,20.3046875 C16.7109375,19.3139496 17.5170746,18.5078125 18.5078125,18.5078125 C19.4985504,18.5078125 20.3046875,19.3139496 20.3046875,20.3046875 C20.3046875,21.3189392 19.6705169,21.7839508 18.4548187,22.5841217 C16.1960907,24.0718079 14.9140625,25.4731598 14.9140625,28.390625 C14.9140625,28.8868714 15.3162536,29.2890625 15.8125,29.2890625 L21.203125,29.2890625 C21.6993714,29.2890625 22.1015625,28.8868714 22.1015625,28.390625 C22.1015625,27.8943786 21.6993714,27.4921875 21.203125,27.4921875 L16.7755127,27.4921875 C17.0439911,25.7384796 18.071579,24.9881439 19.4431,24.0847931 Z" id="Shape"></path>
                <path d="M24.796875,16.7109375 C24.3006286,16.7109375 23.8984375,17.1131286 23.8984375,17.609375 L23.8984375,23 C23.8984375,23.4962464 24.3006286,23.8984375 24.796875,23.8984375 L29.2890625,23.8984375 L29.2890625,28.390625 C29.2890625,28.8868714 29.6912536,29.2890625 30.1875,29.2890625 C30.6837464,29.2890625 31.0859375,28.8868714 31.0859375,28.390625 L31.0859375,17.609375 C31.0859375,17.1131286 30.6837464,16.7109375 30.1875,16.7109375 C29.6912536,16.7109375 29.2890625,17.1131286 29.2890625,17.609375 L29.2890625,22.1015625 L25.6953125,22.1015625 L25.6953125,17.609375 C25.6953125,17.1131286 25.2931214,16.7109375 24.796875,16.7109375 Z" id="Shape"></path>
            </g>
        </g>
    </g>
</svg>