<?xml version="1.0" encoding="UTF-8"?>
<svg width="48px" height="46px" viewBox="0 0 48 46" version="1.1" xmlns="http://www.w3.org/2000/svg" xmlns:xlink="http://www.w3.org/1999/xlink">
    <!-- Generator: Sketch 52.5 (67469) - http://www.bohemiancoding.com/sketch -->
    <title>icon_available</title>
    <desc>Created with Sketch.</desc>
    <g id="Mercury" stroke="none" stroke-width="1" fill="none" fill-rule="evenodd">
        <g id="Artboard" transform="translate(-545.000000, -336.000000)" fill="#0BC2A9" fill-rule="nonzero">
            <g id="icon_available" transform="translate(545.000000, 336.000000)">
                <path d="M40.772142,15.1697888 C40.7716409,15.1697888 40.7710397,15.1697888 40.7705386,15.1697888 L0.687031316,15.1697888 C0.308041754,15.1693922 0.00040083589,15.4729526 8.17233525e-10,15.8478922 C8.17233525e-10,15.8483879 8.17233525e-10,15.8489828 8.17233525e-10,15.8494784 L8.17233525e-10,34.8839612 C-0.000400834256,35.2589009 0.306438414,35.5632543 0.685427976,35.5636509 C0.68592902,35.5636509 0.686530272,35.5636509 0.687031316,35.5636509 L27.9438163,35.5636509 C28.3232067,35.5636509 28.6308476,35.2592974 28.6308476,34.8839612 C28.6308476,34.508625 28.3232067,34.2042716 27.9438163,34.2042716 L1.37406263,34.2042716 L1.37406263,16.5291681 L40.0835073,16.5291681 L40.0835073,18.2287888 C40.0831065,18.6037284 40.3899457,18.9080819 40.7689353,18.9084784 C40.7694363,18.9084784 40.7700376,18.9084784 40.7705386,18.9084784 C41.1495282,18.908875 41.4571691,18.6053147 41.4575699,18.230375 C41.4575699,18.2298793 41.4575699,18.2292845 41.4575699,18.2287888 L41.4575699,15.8494784 C41.4579708,15.4745388 41.1511315,15.1702845 40.772142,15.1697888 Z" id="Shape"></path>
                <path d="M36.1112317,12.0140302 L4.04442589,4.87609914 C3.86645511,4.83674138 3.6799666,4.86866379 3.5257453,4.96492672 C3.37172443,5.06198276 3.26279749,5.21534914 3.22271399,5.39161638 L1.6193737,12.5295474 C1.53700209,12.8961595 1.77068894,13.2594009 2.14126096,13.3408922 C2.51183299,13.4223836 2.87899791,13.191194 2.96136952,12.8245819 L4.41479749,6.35206466 L35.8098038,13.3400991 C35.8595073,13.3515 35.9103132,13.3571509 35.9613194,13.3567543 C36.3407098,13.3560603 36.6477495,13.0512112 36.6471482,12.675875 C36.646547,12.3585345 36.4240835,12.0839224 36.1112317,12.0140302 Z" id="Shape"></path>
                <path d="M32.2175198,8.08103017 L12.9774363,0.14999569 C12.6430397,0.0120948276 12.257737,0.153762931 12.0955992,0.474375 L10.4922589,3.64678879 C10.3111816,3.97810776 10.4358413,4.39200862 10.7708392,4.57115086 C11.105737,4.7502931 11.5241086,4.62696552 11.7051858,4.29554741 C11.7123006,4.28256034 11.7190146,4.26927586 11.7252276,4.2557931 L11.7252276,4.25737931 L13.0407683,1.65282759 L31.6868142,9.3387931 C32.0379457,9.48373276 32.4413862,9.31975862 32.5878914,8.97237931 C32.7343967,8.62519828 32.5686514,8.22606897 32.2175198,8.08103017 Z" id="Shape"></path>
                <path d="M32.7033319,18.3422026 L26.340476,18.3422026 C25.9610856,18.3422026 25.6534447,18.646556 25.6534447,19.0218922 C25.6534447,19.3972284 25.9610856,19.7015819 26.340476,19.7015819 L32.7033319,19.7015819 C33.0827223,19.7015819 33.3903633,19.3972284 33.3903633,19.0218922 C33.3903633,18.646556 33.0827223,18.3422026 32.7033319,18.3422026 Z" id="Shape"></path>
                <path d="M19.9271148,18.3874095 C16.0308977,18.3874095 12.8724175,21.5121379 12.8724175,25.3667198 C12.8764259,29.2196164 16.0326013,32.3420647 19.9271148,32.3460302 C23.8233319,32.3460302 26.9818121,29.2213017 26.9818121,25.3667198 C26.9818121,21.5121379 23.8233319,18.3874095 19.9271148,18.3874095 Z M19.9271148,31.0770647 C16.7392735,31.0770647 14.1550898,28.5204957 14.1550898,25.3667198 C14.1585971,22.214431 16.7407766,19.6598448 19.9271148,19.656375 C23.1149562,19.656375 25.6991399,22.212944 25.6991399,25.3667198 C25.6991399,28.5204957 23.1149562,31.0770647 19.9271148,31.0770647 Z" id="Shape"></path>
                <path d="M39.1671983,20.6080991 C34.9183466,20.6080991 30.3488267,21.6010647 30.3488267,23.7805129 L30.3488267,42.8149957 C30.3488267,44.994444 34.9183466,45.9874095 39.1671983,45.9874095 C43.4160501,45.9874095 47.9855699,44.994444 47.9855699,42.8149957 L47.9855699,23.7805129 C47.9855699,21.6010647 43.4160501,20.6080991 39.1671983,20.6080991 Z M46.3822296,42.8030991 C46.2611775,43.2432716 43.8569687,44.4012026 39.1671983,44.4012026 C34.477428,44.4012026 32.0732192,43.2432716 31.952167,42.8149957 L31.952167,41.5682371 C33.6581211,42.418444 36.4759916,42.8149957 39.1671983,42.8149957 C41.858405,42.8149957 44.6770772,42.4144784 46.3822296,41.567444 L46.3822296,42.8030991 Z M46.3822296,39.6306853 C46.2611775,40.0708578 43.8569687,41.2287888 39.1671983,41.2287888 C34.477428,41.2287888 32.0732192,40.0708578 31.952167,39.6425819 L31.952167,38.3958233 C33.6581211,39.2460302 36.4759916,39.6425819 39.1671983,39.6425819 C41.858405,39.6425819 44.6770772,39.2420647 46.3822296,38.3950302 L46.3822296,39.6306853 Z M46.3822296,36.4582716 C46.2611775,36.898444 43.8569687,38.056375 39.1671983,38.056375 C34.477428,38.056375 32.0732192,36.898444 31.952167,36.4701681 L31.952167,35.2234095 C33.6581211,36.0736164 36.4759916,36.4701681 39.1671983,36.4701681 C41.858405,36.4701681 44.6770772,36.0696509 46.3822296,35.2226164 L46.3822296,36.4582716 Z M46.3822296,33.2858578 C46.2611775,33.7260302 43.8569687,34.8839612 39.1671983,34.8839612 C34.477428,34.8839612 32.0732192,33.7260302 31.952167,33.2977543 L31.952167,32.0509957 C33.6581211,32.9012026 36.4759916,33.2977543 39.1671983,33.2977543 C41.858405,33.2977543 44.6770772,32.8972371 46.3822296,32.0502026 L46.3822296,33.2858578 Z M46.3822296,30.113444 C46.2611775,30.5536164 43.8569687,31.7115474 39.1671983,31.7115474 C34.477428,31.7115474 32.0732192,30.5536164 31.952167,30.1253405 L31.952167,28.8785819 C33.6581211,29.7248233 36.4759916,30.1253405 39.1671983,30.1253405 C41.858405,30.1253405 44.6770772,29.7248233 46.3822296,28.8777888 L46.3822296,30.113444 Z M46.3822296,26.9410302 C46.2611775,27.3812026 43.8569687,28.5391336 39.1671983,28.5391336 C34.477428,28.5391336 32.0732192,27.3812026 31.952167,26.9529267 L31.952167,25.7061681 C33.6581211,26.5524095 36.4759916,26.9529267 39.1671983,26.9529267 C41.858405,26.9529267 44.6770772,26.5524095 46.3822296,25.705375 L46.3822296,26.9410302 Z M39.1671983,25.3667198 C34.484643,25.3667198 32.0812359,24.2119612 31.952167,23.7947888 L31.952167,23.7900302 C32.0812359,23.3482716 34.484643,22.194306 39.1671983,22.194306 C43.8168852,22.194306 46.2218956,23.3316164 46.3822296,23.7805129 C46.2218956,24.2294095 43.8168852,25.3667198 39.1671983,25.3667198 Z" id="Shape"></path>
                <path d="M13.5137537,31.0310647 L7.45392902,31.0310647 L4.58074322,27.9220991 L4.58074322,22.7669267 L7.75375365,19.7015819 L13.5137537,19.7015819 C13.8931441,19.7015819 14.200785,19.3972284 14.200785,19.0218922 C14.200785,18.646556 13.8931441,18.3422026 13.5137537,18.3422026 L7.47477244,18.3422026 C7.29519833,18.341806 7.12253862,18.4110043 6.99377035,18.5349267 L3.41270981,21.9904784 C3.27893111,22.1451336 3.20557829,22.3421207 3.20587891,22.5456509 L3.20587891,28.1862026 C3.20587891,28.3558276 3.26991232,28.519306 3.38545303,28.6446164 L6.64263883,32.1691681 C6.77281002,32.3101422 6.95699374,32.3905431 7.15009603,32.390444 L13.5137537,32.390444 C13.8931441,32.390444 14.200785,32.0860905 14.200785,31.7107543 C14.200785,31.3354181 13.8932443,31.0310647 13.5137537,31.0310647 Z" id="Shape"></path>
                <path d="M20.3279499,24.5736164 L19.5262797,24.5736164 C19.2769603,24.5736164 19.1254447,24.4356164 19.1254447,24.3753405 C19.1254447,24.3150647 19.2769603,24.1770647 19.5262797,24.1770647 L21.5304551,24.1770647 C21.9731775,24.1770647 22.3321253,23.8219526 22.3321253,23.3839612 C22.3321253,22.9459698 21.9731775,22.5908578 21.5304551,22.5908578 L20.728785,22.5908578 C20.728785,22.1528664 20.3698372,21.7977543 19.9271148,21.7977543 C19.4843925,21.7977543 19.1254447,22.1528664 19.1254447,22.5908578 L19.1254447,22.6265474 C18.2362923,22.7507672 17.5626889,23.4838922 17.5221044,24.371375 C17.579524,25.4112328 18.4747891,26.2101853 19.5262797,26.1598233 L20.3279499,26.1598233 C20.5772693,26.1598233 20.728785,26.2978233 20.728785,26.3580991 C20.728785,26.418375 20.5772693,26.556375 20.3279499,26.556375 L18.3237745,26.556375 C17.8810522,26.556375 17.5221044,26.9114871 17.5221044,27.3494784 C17.5221044,27.7874698 17.8810522,28.1425819 18.3237745,28.1425819 L19.1254447,28.1425819 C19.1254447,28.5805733 19.4843925,28.9356853 19.9271148,28.9356853 C20.3698372,28.9356853 20.728785,28.5805733 20.728785,28.1425819 L20.728785,28.1068922 C21.6179374,27.9826724 22.2915407,27.2495474 22.3321253,26.3620647 C22.2747056,25.3222069 21.3794405,24.5232543 20.3279499,24.5736164 Z" id="Shape"></path>
            </g>
        </g>
    </g>
</svg>