<?xml version="1.0" encoding="UTF-8"?>
<svg width="14px" height="14px" viewBox="0 0 14 14" version="1.1" xmlns="http://www.w3.org/2000/svg" xmlns:xlink="http://www.w3.org/1999/xlink">
    <!-- Generator: Sketch 52.5 (67469) - http://www.bohemiancoding.com/sketch -->
    <title>icon_deny</title>
    <desc>Created with Sketch.</desc>
    <g id="Mercury" stroke="none" stroke-width="1" fill="none" fill-rule="evenodd">
        <g id="Artboard" transform="translate(-476.000000, -647.000000)" fill="#D0021B">
            <g id="icon_deny" transform="translate(476.000000, 647.000000)">
                <path d="M13.1129207,0.0135054971 C13.3630322,0.0135054971 13.5710858,0.0965033918 13.7370816,0.262499181 C13.9030774,0.428494971 13.9860753,0.636548616 13.9860753,0.886660117 C13.9860753,1.13230035 13.9019596,1.33923618 13.7337282,1.5074676 L8.23448889,6.99958082 L13.7337282,12.491694 C13.9019596,12.6599255 13.9860753,12.8668613 13.9860753,13.1125015 C13.9860753,13.362613 13.9030774,13.5706667 13.7370816,13.7366625 C13.5710858,13.9026582 13.3630322,13.9856561 13.1129207,13.9856561 C12.8672805,13.9856561 12.6603446,13.9015404 12.4921132,13.733309 L7,8.23406971 L1.50788678,13.733309 C1.33965536,13.9015404 1.13271953,13.9856561 0.887079298,13.9856561 C0.636967797,13.9856561 0.428914152,13.9026582 0.262918363,13.7366625 C0.0969225731,13.5706667 0.0139246784,13.362613 0.0139246784,13.1125015 C0.0139246784,12.8668613 0.0980403899,12.6599255 0.266271813,12.491694 L5.76551111,6.99958082 L0.266271813,1.5074676 C0.0980403899,1.33923618 0.0139246784,1.13230035 0.0139246784,0.886660117 C0.0139246784,0.636548616 0.0969225731,0.428494971 0.262918363,0.262499181 C0.428914152,0.0965033918 0.636967797,0.0135054971 0.887079298,0.0135054971 C1.13271953,0.0135054971 1.33965536,0.0976212086 1.50788678,0.265852632 L7,5.76509193 L12.4921132,0.265852632 C12.6603446,0.0976212086 12.8672805,0.0135054971 13.1129207,0.0135054971 Z" id="Path"></path>
            </g>
        </g>
    </g>
</svg>