<?xml version="1.0" encoding="UTF-8"?>
<svg width="32px" height="43px" viewBox="0 0 32 43" version="1.1" xmlns="http://www.w3.org/2000/svg" xmlns:xlink="http://www.w3.org/1999/xlink">
    <!-- Generator: Sketch 52.5 (67469) - http://www.bohemiancoding.com/sketch -->
    <title>icon_order</title>
    <desc>Created with Sketch.</desc>
    <g id="Mercury" stroke="none" stroke-width="1" fill="none" fill-rule="evenodd">
        <g id="Artboard" transform="translate(-950.000000, -338.000000)" fill="#0BC2A9" fill-rule="nonzero">
            <g id="icon_order" transform="translate(950.000000, 338.000000)">
                <path d="M31.7395833,9.2208125 L22.8506667,0.262451172 C22.684,0.0944824219 22.4583333,0 22.2221667,0 L3.5555,0 C1.5955,0 0,1.60704102 0,3.58336133 L0,39.4167227 C0,41.392959 1.5955,43 3.55558333,43 L28.4445,43 C30.4045,43 32,41.392959 32,39.4166387 L32,9.85413867 C32,9.61621094 31.90625,9.38878125 31.7395833,9.2208125 Z M23.1110833,3.05845898 L28.96525,8.95836133 L24.8888333,8.95836133 C23.9079167,8.95836133 23.1110833,8.15437891 23.1110833,7.16672266 L23.1110833,3.05845898 Z M30.22225,39.4166387 C30.22225,40.4042949 29.4253333,41.2082773 28.4445,41.2082773 L3.55558333,41.2082773 C2.57466667,41.2082773 1.77783333,40.4042949 1.77783333,39.4166387 L1.77783333,3.58336133 C1.77783333,2.59570508 2.57475,1.79172266 3.55558333,1.79172266 L21.3333333,1.79172266 L21.3333333,7.16672266 C21.3333333,9.14295898 22.9288333,10.75 24.8889167,10.75 L30.22225,10.75 L30.22225,39.4166387 Z" id="Shape"></path>
                <path d="M25.77775,25.0833613 L6.22225,25.0833613 C5.73091667,25.0833613 5.33333333,25.4840508 5.33333333,25.9792227 C5.33333333,26.4743945 5.73091667,26.875084 6.22225,26.875084 L25.7778333,26.875084 C26.2691667,26.875084 26.66675,26.4743945 26.66675,25.9792227 C26.6666667,25.4840508 26.2690833,25.0833613 25.77775,25.0833613 Z" id="Shape"></path>
                <path d="M25.77775,19.7083613 L6.22225,19.7083613 C5.73091667,19.7083613 5.33333333,20.1090508 5.33333333,20.6042227 C5.33333333,21.0993945 5.73091667,21.500084 6.22225,21.500084 L25.7778333,21.500084 C26.2691667,21.500084 26.66675,21.0993945 26.66675,20.6042227 C26.6666667,20.1090508 26.2690833,19.7083613 25.77775,19.7083613 Z" id="Shape"></path>
                <path d="M25.77775,30.4583613 L6.22225,30.4583613 C5.73091667,30.4583613 5.33333333,30.8590508 5.33333333,31.3542227 C5.33333333,31.8493945 5.73091667,32.250084 6.22225,32.250084 L25.7778333,32.250084 C26.2691667,32.250084 26.66675,31.8493945 26.66675,31.3542227 C26.6666667,30.8590508 26.2690833,30.4583613 25.77775,30.4583613 Z" id="Shape"></path>
                <path d="M16.8889167,35.8333613 L6.22225,35.8333613 C5.73091667,35.8333613 5.33333333,36.2340508 5.33333333,36.7292227 C5.33333333,37.2243945 5.73091667,37.625084 6.22225,37.625084 L16.8889167,37.625084 C17.38025,37.625084 17.7778333,37.2243945 17.7778333,36.7292227 C17.77775,36.2340508 17.38025,35.8333613 16.8889167,35.8333613 Z" id="Shape"></path>
                <path d="M14.22225,15.2291387 C14.22225,15.7243105 14.6198333,16.125 15.1111667,16.125 L25.7778333,16.125 C26.2691667,16.125 26.66675,15.7243105 26.66675,15.2291387 C26.66675,14.7339668 26.2691667,14.3332773 25.7778333,14.3332773 L15.1111667,14.3332773 C14.6198333,14.3333613 14.22225,14.7340508 14.22225,15.2291387 Z" id="Shape"></path>
                <path d="M8,14.3333613 L6.22225,14.3333613 C5.73091667,14.3333613 5.33333333,14.7340508 5.33333333,15.2292227 C5.33333333,15.7243945 5.73091667,16.125084 6.22225,16.125084 L7.11116667,16.125084 C7.11116667,16.6202559 7.50875,17.0209453 8.00008333,17.0209453 C8.49141667,17.0209453 8.889,16.6202559 8.889,16.125084 L8.889,15.9600547 C9.92133333,15.5889277 10.6666667,14.603875 10.6666667,13.4375 C10.6666667,11.9555117 9.4705,10.75 8,10.75 C7.51041667,10.75 7.11108333,10.3484707 7.11108333,9.85413867 C7.11108333,9.35989062 7.51041667,8.95827734 8,8.95827734 L9.77775,8.95827734 C10.2690833,8.95827734 10.6666667,8.55758789 10.6666667,8.06241602 C10.6666667,7.56724414 10.2690833,7.16655469 9.77775,7.16655469 L8.88883333,7.16655469 C8.88883333,6.67138281 8.49125,6.27069336 7.99991667,6.27069336 C7.50858333,6.27069336 7.111,6.67138281 7.111,7.16655469 L7.111,7.33158398 C6.07866667,7.70271094 5.33333333,8.68776367 5.33333333,9.85413867 C5.33333333,11.336127 6.5295,12.5416387 8,12.5416387 C8.48958333,12.5416387 8.88891667,12.943168 8.88891667,13.4375 C8.88891667,13.931832 8.48958333,14.3333613 8,14.3333613 Z" id="Shape"></path>
            </g>
        </g>
    </g>
</svg>