<?xml version="1.0" encoding="UTF-8"?>
<svg width="16px" height="16px" viewBox="0 0 16 16" version="1.1" xmlns="http://www.w3.org/2000/svg" xmlns:xlink="http://www.w3.org/1999/xlink">
    <!-- Generator: Sketch 52.5 (67469) - http://www.bohemiancoding.com/sketch -->
    <title>icon_edit</title>
    <desc>Created with Sketch.</desc>
    <g id="Mercury" stroke="none" stroke-width="1" fill="none" fill-rule="evenodd">
        <g id="Artboard" transform="translate(-476.000000, -503.000000)" fill="#000000">
            <g id="icon_edit" transform="translate(476.000000, 503.000000)">
                <path d="M14.7498445,10.0389062 C14.5300062,10.0389062 14.3518346,10.2179688 14.3518346,10.4389062 L14.3518346,13.9904688 C14.3510572,14.6529688 13.8170087,15.1898438 13.1578047,15.1904688 L1.99004975,15.1904688 C1.33084577,15.1898438 0.796797254,14.6529688 0.7960199,13.9904688 L0.7960199,3.566875 C0.796797254,2.90453124 1.33084577,2.36765624 1.99004975,2.366875 L5.52394277,2.366875 C5.74378109,2.366875 5.92195272,2.18781248 5.92195272,1.966875 C5.92195272,1.74609376 5.74378109,1.566875 5.52394277,1.566875 L1.99004975,1.566875 C0.891480119,1.568125 0.00124378109,2.46281248 0,3.566875 L0,13.990625 C0.00124378109,15.0946875 0.891480119,15.989375 1.99004975,15.990625 L13.1578047,15.990625 C14.2563744,15.989375 15.1466107,15.0946875 15.1478545,13.990625 L15.1478545,10.4389062 C15.1478545,10.2179688 14.9696828,10.0389062 14.7498445,10.0389062 Z" id="Path"></path>
                <path d="M14.9902052,0.53765624 C14.2907339,-0.16531248 13.1567164,-0.16531248 12.457245,0.53765624 L5.35649875,7.67390624 C5.30783582,7.72281248 5.27269899,7.78343752 5.25435323,7.85 L4.3205846,11.2379688 C4.28218285,11.376875 4.32120645,11.525625 4.42257465,11.6276562 C4.52409827,11.7295312 4.67210822,11.76875 4.81032338,11.7303125 L8.18143658,10.7917188 C8.2476679,10.7732812 8.30799128,10.7379688 8.35665425,10.6890625 L15.457245,3.55265624 C16.1556281,2.84921876 16.1556281,1.71046876 15.457245,1.00703124 L14.9902052,0.53765624 Z M6.22372513,7.93390624 L12.0351368,2.09328124 L13.9093594,3.976875 L8.09779228,9.8175 L6.22372513,7.93390624 Z M5.84934702,8.68890624 L7.346704,10.1939062 L5.27549751,10.770625 L5.84934702,8.68890624 Z M14.8944341,2.98703124 L14.4723259,3.41125 L12.5979478,1.5275 L13.0202114,1.10328124 C13.4087376,0.71281248 14.0387127,0.71281248 14.4272388,1.10328124 L14.8944341,1.57265624 C15.2823383,1.96359376 15.2823383,2.59625 14.8944341,2.98703124 Z" id="Shape" fill-rule="nonzero"></path>
            </g>
        </g>
    </g>
</svg>