<?xml version="1.0" encoding="UTF-8"?>
<svg width="21px" height="20px" viewBox="0 0 21 20" version="1.1" xmlns="http://www.w3.org/2000/svg" xmlns:xlink="http://www.w3.org/1999/xlink">
    <!-- Generator: Sketch 52.5 (67469) - http://www.bohemiancoding.com/sketch -->
    <title>icon_notify</title>
    <desc>Created with Sketch.</desc>
    <g id="Mercury" stroke="none" stroke-width="1" fill="none" fill-rule="evenodd">
        <g id="Artboard" transform="translate(-575.000000, -171.000000)" fill="#000000" fill-rule="nonzero">
            <g id="icon_notify" transform="translate(575.000000, 171.000000)">
                <path d="M20.65,14.2930078 C18.1848538,11.94 17.8138947,10.7593359 17.8138947,7 C17.8138947,3.13398437 14.5303216,0 10.479614,0 C6.42890643,0 3.14533333,3.13402344 3.14533333,7 C3.14533333,9.02699219 3.08876023,9.78367187 2.79635673,10.7126562 C2.43272515,11.87 1.68622222,12.9780078 0.308859649,14.2930078 C-0.350982456,14.9230078 0.116421053,16 1.04979532,16 L6.86487135,16 L6.81210526,16.5 C6.81210526,18.4330078 8.45391228,20 10.4792456,20 C12.5045789,20 14.146386,18.4330078 14.146386,16.5 L14.0936199,16 L19.9090643,16 C20.842807,16 21.3102105,14.9230078 20.65,14.2930078 Z M10.4799415,19 C9.03339766,19 7.8604269,17.8803516 7.8604269,16.5 L7.91319298,16 L13.046076,16 L13.099538,16.5 C13.0994971,17.8803516 11.9264854,19 10.4799415,19 Z M1.05012281,15 C4.19328655,12 4.19328655,10 4.19328655,7 C4.19328655,3.68667969 7.00773684,1 10.479614,1 C13.9514912,1 16.7659415,3.68667969 16.766269,7 C16.766269,10 16.766269,12 19.9094327,15 L1.05012281,15 Z" id="Shape"></path>
            </g>
        </g>
    </g>
</svg>