<?xml version="1.0" encoding="UTF-8"?>
<svg width="129px" height="26px" viewBox="0 0 129 26" version="1.1" xmlns="http://www.w3.org/2000/svg" xmlns:xlink="http://www.w3.org/1999/xlink">
    <!-- Generator: Sketch 52.5 (67469) - http://www.bohemiancoding.com/sketch -->
    <title>logo_white</title>
    <desc>Created with Sketch.</desc>
    <g id="Mercury" stroke="none" stroke-width="1" fill="none" fill-rule="evenodd">
        <g id="Artboard" transform="translate(-218.000000, -169.000000)" fill="#FFFFFF">
            <g id="logo_white" transform="translate(218.000000, 169.000000)">
                <path d="M5.91005587,12.8818182 C5.97315989,9.02012787 9.12326914,5.90909091 13,5.90909091 C16.916201,5.90909091 20.0909091,9.08379905 20.0909091,13 C20.0909091,16.916201 16.916201,20.0909091 13,20.0909091 C11.1838895,20.0909091 9.52724262,19.4081643 8.27272727,18.2853427 L8.27272727,22.730303 L5.90909091,22.730303 L5.90909091,12.8818182 Z M13,17.7272727 C15.6108006,17.7272727 17.7272727,15.6108006 17.7272727,13 C17.7272727,10.3891994 15.6108006,8.27272727 13,8.27272727 C10.3891994,8.27272727 8.27272727,10.3891994 8.27272727,13 C8.27272727,15.6108006 10.3891994,17.7272727 13,17.7272727 Z" id="Combined-Shape"></path>
                <path d="M13,26 C5.82029825,26 0,20.1797017 0,13 C0,5.82029825 5.82029825,0 13,0 C20.1797017,0 26,5.82029825 26,13 C26,20.1797017 20.1797017,26 13,26 Z M13,23.6363636 C18.8743014,23.6363636 23.6363636,18.8743014 23.6363636,13 C23.6363636,7.12569857 18.8743014,2.36363636 13,2.36363636 C7.12569857,2.36363636 2.36363636,7.12569857 2.36363636,13 C2.36363636,18.8743014 7.12569857,23.6363636 13,23.6363636 Z" id="Combined-Shape"></path>
                <path d="M37.0546875,13.3925781 C37.0546875,11.2701717 37.8326745,9.44727324 39.3886719,7.92382812 C40.9381588,6.40038301 42.8001193,5.63867188 44.9746094,5.63867188 C47.1230576,5.63867188 48.9654871,6.40689336 50.5019531,7.94335938 C52.0449296,9.47982539 52.8164062,11.3255101 52.8164062,13.4804688 C52.8164062,15.6484483 52.0416744,17.4876227 50.4921875,18.9980469 C48.9361901,20.5149815 47.0579537,21.2734375 44.8574219,21.2734375 C42.9107976,21.2734375 41.1627682,20.5996161 39.6132812,19.2519531 C37.9075436,17.7610603 37.0546875,15.8079548 37.0546875,13.3925781 Z M39.3496094,13.421875 C39.3496094,15.08855 39.9094996,16.458979 41.0292969,17.5332031 C42.1425837,18.6074272 43.4283781,19.1445312 44.8867188,19.1445312 C46.4687579,19.1445312 47.80338,18.5976617 48.890625,17.5039062 C49.97787,16.3971299 50.5214844,15.0494871 50.5214844,13.4609375 C50.5214844,11.8528565 49.9843804,10.5052138 48.9101562,9.41796875 C47.8424426,8.32421328 46.5208412,7.77734375 44.9453125,7.77734375 C43.3762942,7.77734375 42.0514377,8.32421328 40.9707031,9.41796875 C39.8899686,10.4987033 39.3496094,11.8333254 39.3496094,13.421875 Z M55.2578125,11.4882812 L57.4648438,11.4882812 L57.4648438,12.3671875 C58.2330768,11.6054649 59.0989535,11.2246094 60.0625,11.2246094 C61.1692764,11.2246094 62.0318979,11.5729132 62.6503906,12.2695312 C63.1842475,12.8619821 63.4511719,13.8287693 63.4511719,15.1699219 L63.4511719,21 L61.2441406,21 L61.2441406,15.6875 C61.2441406,14.7499953 61.1139336,14.1022153 60.8535156,13.7441406 C60.5996081,13.3795555 60.1373731,13.1972656 59.4667969,13.1972656 C58.7376266,13.1972656 58.2200536,13.4381486 57.9140625,13.9199219 C57.6145818,14.3951847 57.4648438,15.2252545 57.4648438,16.4101562 L57.4648438,21 L55.2578125,21 L55.2578125,11.4882812 Z M74.8867188,16.7617188 L68.0703125,16.7617188 C68.1289065,17.5429727 68.3828103,18.1647112 68.8320312,18.6269531 C69.2812522,19.0826846 69.8574184,19.3105469 70.5605469,19.3105469 C71.1074246,19.3105469 71.559894,19.1803398 71.9179688,18.9199219 C72.269533,18.6595039 72.6699196,18.1777379 73.1191406,17.4746094 L74.9746094,18.5097656 C74.6881496,18.9980493 74.3854183,19.4163394 74.0664062,19.7646484 C73.7473942,20.1129575 73.4056008,20.3994129 73.0410156,20.6240234 C72.6764305,20.8486339 72.2825542,21.0130203 71.859375,21.1171875 C71.4361958,21.2213547 70.977216,21.2734375 70.4824219,21.2734375 C69.0631439,21.2734375 67.9238324,20.8177129 67.0644531,19.90625 C66.2050738,18.9882767 65.7753906,17.7708409 65.7753906,16.2539062 C65.7753906,14.7499925 66.1920531,13.5325567 67.0253906,12.6015625 C67.8652386,11.6835892 68.9785087,11.2246094 70.3652344,11.2246094 C71.764981,11.2246094 72.8717407,11.6705685 73.6855469,12.5625 C74.4928426,13.4479211 74.8964844,14.6751224 74.8964844,16.2441406 L74.8867188,16.7617188 Z M72.6308594,14.9648438 C72.3248683,13.7929629 71.5859434,13.2070312 70.4140625,13.2070312 C70.1471341,13.2070312 69.8964855,13.2477209 69.6621094,13.3291016 C69.4277332,13.4104822 69.2145192,13.5276685 69.0224609,13.6806641 C68.8304027,13.8336596 68.6660163,14.0175771 68.5292969,14.2324219 C68.3925774,14.4472667 68.2884118,14.6914049 68.2167969,14.9648438 L72.6308594,14.9648438 Z M86.15625,14.8769531 L86.15625,21 L83.8808594,21 L83.8808594,5.921875 L86.4589844,5.921875 C87.7220115,5.921875 88.675778,6.00976475 89.3203125,6.18554688 C89.9713574,6.361329 90.5442684,6.69335693 91.0390625,7.18164062 C91.9049522,8.02799902 92.3378906,9.09569668 92.3378906,10.3847656 C92.3378906,11.7649809 91.8756557,12.8587199 90.9511719,13.6660156 C90.0266881,14.4733113 88.7799558,14.8769531 87.2109375,14.8769531 L86.15625,14.8769531 Z M86.15625,12.7675781 L87.0058594,12.7675781 C89.0957136,12.7675781 90.140625,11.9635497 90.140625,10.3554688 C90.140625,8.79947139 89.0631618,8.02148438 86.9082031,8.02148438 L86.15625,8.02148438 L86.15625,12.7675781 Z M96.4589844,11.4882812 L96.4589844,21 L94.2617188,21 L94.2617188,11.4882812 L96.4589844,11.4882812 Z M93.9296875,7.53320312 C93.9296875,7.14908662 94.0696601,6.81705869 94.3496094,6.53710938 C94.6295587,6.25716006 94.9648418,6.1171875 95.3554688,6.1171875 C95.7526062,6.1171875 96.0911444,6.25716006 96.3710938,6.53710938 C96.6510431,6.81054824 96.7910156,7.14583135 96.7910156,7.54296875 C96.7910156,7.94010615 96.6510431,8.27864443 96.3710938,8.55859375 C96.0976549,8.83854307 95.7623718,8.97851562 95.3652344,8.97851562 C94.968097,8.97851562 94.6295587,8.83854307 94.3496094,8.55859375 C94.0696601,8.27864443 93.9296875,7.93685098 93.9296875,7.53320312 Z M107.904297,16.7617188 L101.087891,16.7617188 C101.146485,17.5429727 101.400388,18.1647112 101.849609,18.6269531 C102.29883,19.0826846 102.874996,19.3105469 103.578125,19.3105469 C104.125003,19.3105469 104.577472,19.1803398 104.935547,18.9199219 C105.287111,18.6595039 105.687498,18.1777379 106.136719,17.4746094 L107.992188,18.5097656 C107.705728,18.9980493 107.402996,19.4163394 107.083984,19.7646484 C106.764972,20.1129575 106.423179,20.3994129 106.058594,20.6240234 C105.694009,20.8486339 105.300132,21.0130203 104.876953,21.1171875 C104.453774,21.2213547 103.994794,21.2734375 103.5,21.2734375 C102.080722,21.2734375 100.941411,20.8177129 100.082031,19.90625 C99.222652,18.9882767 98.7929688,17.7708409 98.7929688,16.2539062 C98.7929688,14.7499925 99.2096313,13.5325567 100.042969,12.6015625 C100.882817,11.6835892 101.996087,11.2246094 103.382812,11.2246094 C104.782559,11.2246094 105.889319,11.6705685 106.703125,12.5625 C107.510421,13.4479211 107.914062,14.6751224 107.914062,16.2441406 L107.904297,16.7617188 Z M105.648438,14.9648438 C105.342446,13.7929629 104.603521,13.2070312 103.431641,13.2070312 C103.164712,13.2070312 102.914064,13.2477209 102.679688,13.3291016 C102.445311,13.4104822 102.232097,13.5276685 102.040039,13.6806641 C101.847981,13.8336596 101.683594,14.0175771 101.546875,14.2324219 C101.410156,14.4472667 101.30599,14.6914049 101.234375,14.9648438 L105.648438,14.9648438 Z M117.708984,11.8984375 L117.708984,14.8183594 C117.20768,14.2063771 116.758466,13.7864595 116.361328,13.5585938 C115.970701,13.3242176 115.511721,13.2070312 114.984375,13.2070312 C114.157548,13.2070312 113.470706,13.4967419 112.923828,14.0761719 C112.37695,14.6556019 112.103516,15.3815061 112.103516,16.2539062 C112.103516,17.1458378 112.367185,17.8782523 112.894531,18.4511719 C113.428388,19.0240914 114.10872,19.3105469 114.935547,19.3105469 C115.462893,19.3105469 115.928383,19.1966157 116.332031,18.96875 C116.722658,18.7473947 117.181638,18.3177115 117.708984,17.6796875 L117.708984,20.5800781 C116.817053,21.04232 115.925135,21.2734375 115.033203,21.2734375 C113.561842,21.2734375 112.331385,20.7981818 111.341797,19.8476562 C110.352209,18.8906202 109.857422,17.7024811 109.857422,16.2832031 C109.857422,14.8639252 110.358719,13.6660205 111.361328,12.6894531 C112.363937,11.7128857 113.594394,11.2246094 115.052734,11.2246094 C115.990239,11.2246094 116.875647,11.4492165 117.708984,11.8984375 Z M128.5,16.7617188 L121.683594,16.7617188 C121.742188,17.5429727 121.996092,18.1647112 122.445312,18.6269531 C122.894533,19.0826846 123.4707,19.3105469 124.173828,19.3105469 C124.720706,19.3105469 125.173175,19.1803398 125.53125,18.9199219 C125.882814,18.6595039 126.283201,18.1777379 126.732422,17.4746094 L128.587891,18.5097656 C128.301431,18.9980493 127.9987,19.4163394 127.679688,19.7646484 C127.360675,20.1129575 127.018882,20.3994129 126.654297,20.6240234 C126.289712,20.8486339 125.895835,21.0130203 125.472656,21.1171875 C125.049477,21.2213547 124.590497,21.2734375 124.095703,21.2734375 C122.676425,21.2734375 121.537114,20.8177129 120.677734,19.90625 C119.818355,18.9882767 119.388672,17.7708409 119.388672,16.2539062 C119.388672,14.7499925 119.805334,13.5325567 120.638672,12.6015625 C121.47852,11.6835892 122.59179,11.2246094 123.978516,11.2246094 C125.378262,11.2246094 126.485022,11.6705685 127.298828,12.5625 C128.106124,13.4479211 128.509766,14.6751224 128.509766,16.2441406 L128.5,16.7617188 Z M126.244141,14.9648438 C125.93815,13.7929629 125.199225,13.2070312 124.027344,13.2070312 C123.760415,13.2070312 123.509767,13.2477209 123.275391,13.3291016 C123.041014,13.4104822 122.8278,13.5276685 122.635742,13.6806641 C122.443684,13.8336596 122.279298,14.0175771 122.142578,14.2324219 C122.005859,14.4472667 121.901693,14.6914049 121.830078,14.9648438 L126.244141,14.9648438 Z" id="One-Piece"></path>
            </g>
        </g>
    </g>
</svg>