<?xml version="1.0" encoding="UTF-8"?>
<svg width="20px" height="20px" viewBox="0 0 20 20" version="1.1" xmlns="http://www.w3.org/2000/svg" xmlns:xlink="http://www.w3.org/1999/xlink">
    <!-- Generator: Sketch 52.5 (67469) - http://www.bohemiancoding.com/sketch -->
    <title>navicon_fenzhanghu</title>
    <desc>Created with Sketch.</desc>
    <g id="Mercury" stroke="none" stroke-width="1" fill="none" fill-rule="evenodd">
        <g id="Artboard" transform="translate(-220.000000, -312.000000)" fill="#FFFFFF" fill-rule="nonzero">
            <g id="navicon_fenzhanghu" transform="translate(220.000000, 312.000000)">
                <path d="M18.0122553,15.1122837 L17.8792624,15.0855035 L17.8375035,14.9561418 C17.4403404,13.739234 16.8180425,12.6957163 15.9874042,11.8519149 C15.284312,11.138383 14.4314326,10.5678298 13.4528227,10.1556879 C12.2508936,9.64958862 11.165617,9.510695 10.6254752,9.47347515 L10.4094184,9.45849643 L10.4094184,9.24107798 L10.4094184,7.16085102 C10.4094184,7.14360279 10.4076028,7.12544677 10.4057872,7.10819853 L10.3771915,6.88805668 L10.5950638,6.84992902 C12.2413617,6.56034036 13.4355744,5.13463823 13.4355744,3.45838291 C13.4360284,1.5592624 11.8954894,0.0141844043 10.0018156,0.0141844043 C8.10814183,0.0141844043 6.56760283,1.55926243 6.56760283,3.45838298 C6.56760283,5.12192909 7.75182979,6.5467234 9.38496453,6.84493617 L9.59965957,6.88442553 L9.57378723,7.10184398 C9.57106383,7.12226951 9.56924823,7.14178723 9.56924823,7.16175887 L9.56924823,9.24107802 L9.56924823,9.45849647 L9.3527376,9.47347519 C8.81032626,9.51024115 7.72051064,9.64868087 6.51404255,10.1565958 C5.53543262,10.5687376 4.68255319,11.1392908 3.979461,11.8532766 C3.14700711,12.6966241 2.52380143,13.7433192 2.12754611,14.9643121 L2.08578723,15.0909504 L1.95551772,15.1195461 C0.830751766,15.3614752 0.0141844043,16.3732199 0.0141844043,17.5261277 C0.0141844043,18.8828369 1.11534753,19.9862695 2.46887945,19.9862695 C3.82150355,19.9862695 4.92266668,18.8828369 4.92266668,17.5261277 C4.92266668,16.4431206 4.23001419,15.4990071 3.19829789,15.1767376 L2.96272343,15.1032057 L3.04896455,14.8726241 C3.73798583,13.0397731 4.9975603,11.7211915 6.7936454,10.9500142 C7.85123406,10.498383 8.82757449,10.361305 9.31642555,10.32 L9.56834045,10.2986667 L9.56834045,10.5519433 L9.56834045,14.9121135 L9.56834045,15.0932199 L9.39222698,15.138156 C8.29832628,15.412312 7.53395747,16.3940993 7.53395747,17.5252199 C7.53395747,18.8819291 8.6351206,19.9853617 9.9877447,19.9853617 C11.3408227,19.9853617 12.4419858,18.8819291 12.4419858,17.5252199 C12.4419858,16.3940993 11.6771631,15.412312 10.5837163,15.138156 L10.4085106,15.0941277 L10.4085106,14.9130213 L10.4085106,10.5523972 L10.4085106,10.2991206 L10.6604255,10.3204539 C11.133844,10.3603972 12.084766,10.493844 13.1278298,10.932766 C14.950695,11.6998582 16.2266099,13.0284256 16.9201702,14.8817021 L17.0055036,15.1100142 L16.7744681,15.1853617 C15.7590922,15.5158014 15.0773333,16.4562837 15.0773333,17.5261277 C15.0773333,18.8828369 16.1784965,19.9862695 17.5311206,19.9862695 C18.8846525,19.9858156 19.9858156,18.882383 19.9858156,17.5256738 C19.9858156,16.3564255 19.1560851,15.3415036 18.0122553,15.1122837 Z M4.08249645,17.5256738 C4.08249645,18.4175887 3.35852481,19.142922 2.46842553,19.142922 C1.57787234,19.142922 0.854354617,18.4171348 0.854354617,17.5256738 C0.854354617,16.633305 1.57787234,15.9079716 2.46842553,15.9079716 C3.35852483,15.9079716 4.08249645,16.633305 4.08249645,17.5256738 Z M7.40777304,3.45838298 C7.40777304,2.02314894 8.57157447,0.857531915 10.0022695,0.857531915 C11.4329645,0.857531915 12.5967659,2.02314894 12.5967659,3.45838298 C12.5967659,4.89180143 11.4334184,6.05878015 10.0022695,6.05878015 C8.57202836,6.05878015 7.40777304,4.89180143 7.40777304,3.45838298 Z M11.6031773,17.5256738 C11.6031773,18.4175887 10.8792057,19.142922 9.98910638,19.142922 C9.09900711,19.142922 8.37458155,18.4171348 8.37458155,17.5256738 C8.37458155,16.633305 9.09900709,15.9079716 9.98910638,15.9079716 C10.8787518,15.9079716 11.6031773,16.633305 11.6031773,17.5256738 Z M17.5311206,19.1433759 C16.6414752,19.1433759 15.9170497,18.4175887 15.9170497,17.5261277 C15.9170497,16.6337589 16.6410213,15.9084255 17.5311206,15.9084255 C18.4212199,15.9084255 19.1456454,16.6346667 19.1456454,17.5261277 C19.1451915,18.4175887 18.4212199,19.1433759 17.5311206,19.1433759 Z" id="Shape"></path>
            </g>
        </g>
    </g>
</svg>