<?xml version="1.0" encoding="UTF-8"?>
<svg width="15px" height="20px" viewBox="0 0 15 20" version="1.1" xmlns="http://www.w3.org/2000/svg" xmlns:xlink="http://www.w3.org/1999/xlink">
    <!-- Generator: Sketch 52.5 (67469) - http://www.bohemiancoding.com/sketch -->
    <title>navicon_transaction</title>
    <desc>Created with Sketch.</desc>
    <g id="Mercury" stroke="none" stroke-width="1" fill="none" fill-rule="evenodd">
        <g id="Artboard" transform="translate(-223.000000, -673.000000)" fill="#FFFFFF" fill-rule="nonzero">
            <g id="navicon_transaction" transform="translate(223.000000, 673.000000)">
                <path d="M14.5703856,0.76921875 L12.606383,0.76921875 L12.606383,0.384609375 C12.606383,0.1721875 12.430492,0 12.2135904,0 L2.78640957,0 C2.56946809,0 2.39361702,0.1721875 2.39361702,0.384609375 L2.39361702,0.76921875 L0.429614362,0.76921875 C0.212672872,0.76921875 0.0368218085,0.94140625 0.0368218085,1.15382812 L0.0368218085,19.6153516 C0.0368218085,19.8277734 0.212672872,19.9999609 0.429614362,19.9999609 L14.5703856,19.9999609 C14.7872872,19.9999609 14.9631782,19.8277734 14.9631782,19.6153516 L14.9631782,1.15382812 C14.9631782,0.94140625 14.7872872,0.76921875 14.5703856,0.76921875 Z M3.17920213,0.76921875 L11.820758,0.76921875 L11.820758,1.92304688 L3.17920213,1.92304688 L3.17920213,0.76921875 Z M10.2495878,2.69230469 L10.2495878,3.46152344 L4.75041223,3.46152344 L4.75041223,2.69230469 L10.2495878,2.69230469 Z M3.96482713,2.69230469 L3.96482713,3.84613281 C3.96482713,4.05855469 4.14067819,4.23074219 4.35761968,4.23074219 L10.6423803,4.23074219 C10.8592819,4.23074219 11.0351729,4.05855469 11.0351729,3.84613281 L11.0351729,2.69230469 L12.606383,2.69230469 L12.606383,17.6923047 L2.39361702,17.6923047 L2.39361702,16.9230859 L3.57199468,16.9230859 C3.78893617,16.9230859 3.96478723,16.7508984 3.96478723,16.5384766 C3.96478723,16.3260547 3.78893617,16.1538672 3.57199468,16.1538672 L2.39361702,16.1538672 L2.39361702,2.69230469 L3.96482713,2.69230469 Z M14.1775931,19.2307812 L0.822406915,19.2307812 L0.822406915,1.53847656 L2.39361702,1.53847656 L2.39361702,1.92308594 L2.00082447,1.92308594 C1.78388298,1.92308594 1.60803191,2.09527344 1.60803191,2.30769531 L1.60803191,18.0769141 C1.60803191,18.2893359 1.78388298,18.4615234 2.00082447,18.4615234 L12.9991755,18.4615234 C13.2160771,18.4615234 13.3919681,18.2893359 13.3919681,18.0769141 L13.3919681,2.30769531 C13.3919681,2.09527344 13.2160771,1.92308594 12.9991755,1.92308594 L12.606383,1.92308594 L12.606383,1.53847656 L14.1775931,1.53847656 L14.1775931,19.2307812 Z" id="Shape"></path>
                <path d="M4.16369681,5 C3.62090426,5 3.17924202,5.43242187 3.17924202,5.96394531 C3.17924202,6.49546875 3.62086436,6.92785156 4.16369681,6.92785156 C4.70648936,6.92785156 5.1481516,6.49542969 5.1481516,5.96390625 C5.1481516,5.43238281 4.70648936,5 4.16369681,5 Z M4.16369681,6.15871094 C4.05402926,6.15871094 3.96482713,6.07132812 3.96482713,5.96398437 C3.96482713,5.85664062 4.05402926,5.76925781 4.16369681,5.76925781 C4.27336436,5.76925781 4.36256649,5.85660156 4.36256649,5.96398437 C4.36256649,6.07132812 4.27336436,6.15871094 4.16369681,6.15871094 Z" id="Shape"></path>
                <path d="M11.4280053,5.57933594 L5.92878989,5.57933594 C5.7118484,5.57933594 5.53599734,5.75152344 5.53599734,5.96394531 C5.53599734,6.17636719 5.7118484,6.34855469 5.92878989,6.34855469 L11.4279654,6.34855469 C11.644867,6.34855469 11.820758,6.17636719 11.820758,5.96394531 C11.8207979,5.75152344 11.6449069,5.57933594 11.4280053,5.57933594 Z" id="Shape"></path>
                <path d="M4.16369681,7.49757813 C3.62086436,7.49757813 3.17924202,7.93003906 3.17924202,8.46152344 C3.17924202,8.99300781 3.62086436,9.42546875 4.16369681,9.42546875 C4.70648936,9.42546875 5.1481516,8.99304687 5.1481516,8.46152344 C5.1481516,7.93 4.70652926,7.49757813 4.16369681,7.49757813 Z M4.16369681,8.65632813 C4.05402926,8.65632813 3.96482713,8.56894531 3.96482713,8.4615625 C3.96482713,8.35417969 4.05402926,8.266875 4.16369681,8.266875 C4.27336436,8.266875 4.36256649,8.35421875 4.36256649,8.46160156 C4.36256649,8.56894531 4.27336436,8.65632813 4.16369681,8.65632813 Z" id="Shape"></path>
                <path d="M11.4280053,8.07691406 L5.92878989,8.07691406 C5.7118484,8.07691406 5.53599734,8.24910156 5.53599734,8.46152344 C5.53599734,8.67394531 5.7118484,8.84613281 5.92878989,8.84613281 L11.4279654,8.84613281 C11.644867,8.84613281 11.820758,8.67394531 11.820758,8.46152344 C11.8207979,8.24910156 11.6449069,8.07691406 11.4280053,8.07691406 Z" id="Shape"></path>
                <path d="M4.16369681,9.80527344 C3.62086436,9.80527344 3.17924202,10.2377344 3.17924202,10.7692188 C3.17924202,11.3007031 3.62086436,11.7331641 4.16369681,11.7331641 C4.70648936,11.7331641 5.1481516,11.3007422 5.1481516,10.7692188 C5.1481516,10.2376953 4.70652926,9.80527344 4.16369681,9.80527344 Z M4.16369681,10.9639844 C4.05402926,10.9639844 3.96482713,10.8766016 3.96482713,10.7692188 C3.96482713,10.6618359 4.05402926,10.5745313 4.16369681,10.5745313 C4.27336436,10.5745313 4.36256649,10.661875 4.36256649,10.7692578 C4.36256649,10.8766406 4.27336436,10.9639844 4.16369681,10.9639844 Z" id="Shape"></path>
                <path d="M11.4280053,10.3846094 L5.92878989,10.3846094 C5.7118484,10.3846094 5.53599734,10.5567969 5.53599734,10.7692188 C5.53599734,10.9816406 5.7118484,11.1538281 5.92878989,11.1538281 L11.4279654,11.1538281 C11.644867,11.1538281 11.820758,10.9816406 11.820758,10.7692188 C11.820758,10.5567969 11.6449069,10.3846094 11.4280053,10.3846094 Z" id="Shape"></path>
                <path d="M5.0281117,16.2665234 C5.01003989,16.2488281 4.9900133,16.2326563 4.96839096,16.2188281 C4.94716755,16.205 4.9243883,16.1930469 4.90081117,16.1834375 C4.87683511,16.1738281 4.85210106,16.1661328 4.82696809,16.1615234 C4.77670213,16.1515234 4.72444149,16.1515234 4.6737766,16.1615234 C4.64864362,16.1661328 4.62390957,16.1738281 4.60033245,16.1834375 C4.57635638,16.1930469 4.55357713,16.2049609 4.53239362,16.2188281 C4.51077128,16.2326563 4.49074468,16.2488281 4.47267287,16.2665234 C4.39962766,16.3380469 4.35757979,16.4373047 4.35757979,16.5384375 C4.35757979,16.5634375 4.36033245,16.5888281 4.36543883,16.6134375 C4.37014628,16.6380469 4.37800532,16.6622656 4.38781915,16.6853516 C4.39763298,16.7088281 4.40980053,16.7311328 4.42396277,16.751875 C4.43808511,16.7730469 4.45460106,16.7926563 4.47267287,16.8103516 C4.49074468,16.8280469 4.51077128,16.8442188 4.53239362,16.8580469 C4.55361702,16.871875 4.57639628,16.8838281 4.60033245,16.8934375 C4.62390957,16.9030469 4.64864362,16.9107422 4.6737766,16.9153516 C4.69890957,16.9203516 4.72484043,16.9230469 4.75037234,16.9230469 C4.77590426,16.9230469 4.80183511,16.9203516 4.82696809,16.9153516 C4.85210106,16.9107422 4.87683511,16.9030469 4.90081117,16.8934375 C4.9243883,16.8838281 4.94716755,16.8719141 4.96839096,16.8580469 C4.9900133,16.8442188 5.01003989,16.8280469 5.0281117,16.8103516 C5.04618351,16.7926563 5.06269947,16.7730469 5.07682181,16.751875 C5.09094415,16.7310938 5.1031516,16.7087891 5.11296543,16.6853516 C5.12277926,16.6622656 5.1306383,16.6380469 5.13534574,16.6134375 C5.14045213,16.5888281 5.14320479,16.5634375 5.14320479,16.5384375 C5.14320479,16.4373047 5.10119681,16.3380859 5.0281117,16.2665234 Z" id="Shape"></path>
            </g>
        </g>
    </g>
</svg>