<?xml version="1.0" encoding="UTF-8"?>
<svg width="20px" height="20px" viewBox="0 0 20 20" version="1.1" xmlns="http://www.w3.org/2000/svg" xmlns:xlink="http://www.w3.org/1999/xlink">
    <!-- Generator: Sketch 52.5 (67469) - http://www.bohemiancoding.com/sketch -->
    <title>navicon_transfer</title>
    <desc>Created with Sketch.</desc>
    <g id="Mercury" stroke="none" stroke-width="1" fill="none" fill-rule="evenodd">
        <g id="Artboard" transform="translate(-220.000000, -613.000000)" fill="#FFFFFF">
            <g id="navicon_transfer" transform="translate(220.000000, 613.000000)">
                <path d="M17.4761905,0.952380957 C18.3333333,0.952380957 19.047619,1.66666666 19.047619,2.52380953 L19.047619,17.4761905 C19.047619,18.3333333 18.3333333,19.0476191 17.4761905,19.0476191 L2.52380953,19.047619 C1.66666666,19.047619 0.952380957,18.3333333 0.952380957,17.4761905 L0.952380957,2.52380953 C0.952380957,1.66666666 1.66666666,0.952380957 2.52380953,0.952380957 L17.4761905,0.952380957 Z M17.4761905,0 L2.52380953,0 C1.14285715,0 0,1.14285715 0,2.52380953 L0,17.4761905 C0,18.8571429 1.14285715,20 2.52380953,20 L17.4761905,20 C18.8571429,20 20,18.8571429 20,17.4761905 L20,2.52380953 C19.952381,1.14285715 18.8095238,0 17.4761905,0 Z" id="Shape" fill-rule="nonzero"></path>
                <path d="M14.6190476,7.52380953 L6.85714285,7.52380953 L8.61904762,5.76190477 C8.76190477,5.61904762 8.76190477,5.42857143 8.61904762,5.33333334 L8.19047619,4.90476191 C8.14285715,4.76190477 7.85714285,4.76190477 7.76190477,4.90476191 L5.14285715,7.52380953 C5.09523811,7.57142857 5.04761906,7.61904762 5.04761906,7.71428572 C5.00000002,7.76190477 5.00000002,7.80952381 5.00000002,7.85714287 L5.00000002,8.47619049 C5.00000002,8.66666668 5.14285717,8.80952383 5.33333336,8.80952383 L14.7142857,8.80952383 C14.9047619,8.80952383 15.0476191,8.66666668 15.0476191,8.47619049 L15.0476191,7.85714287 C14.952381,7.61904762 14.8095238,7.52380953 14.6190476,7.52380953 Z" id="Path"></path>
                <path d="M14.7142857,10 L5.33333334,10 C5.14285715,10 5,10.1428571 5,10.2380952 L5,10.8571429 C5,11.047619 5,11.2380952 5.61904762,11.2380952 L12.952381,11.2380952 L11.3809524,12.7619048 C11.2380952,12.9047619 11.2380952,13.0952381 11.3809524,13.1904762 L11.8095238,13.6190476 C11.952381,13.7619048 12.1428571,13.7619048 12.2380952,13.6190476 L14.8095238,11.1904762 C15,11.0952381 15,10.952381 15,10.9047619 L15,10.2857143 C14.952381,10.1428571 14.8095238,10 14.7142857,10 Z" id="Path"></path>
            </g>
        </g>
    </g>
</svg>