<?xml version="1.0" encoding="UTF-8"?>
<svg width="21px" height="16px" viewBox="0 0 21 16" version="1.1" xmlns="http://www.w3.org/2000/svg" xmlns:xlink="http://www.w3.org/1999/xlink">
    <!-- Generator: Sketch 52.5 (67469) - http://www.bohemiancoding.com/sketch -->
    <title>navicon_zizhi</title>
    <desc>Created with Sketch.</desc>
    <g id="Mercury" stroke="none" stroke-width="1" fill="none" fill-rule="evenodd">
        <g id="Artboard" transform="translate(-220.000000, -434.000000)" fill="#FFFFFF" fill-rule="nonzero">
            <g id="navicon_zizhi" transform="translate(220.000000, 434.000000)">
                <path d="M2.56335079,15.9872 C1.15602094,15.9872 0.012565445,14.7456 0.012565445,13.2352 L0.012565445,2.7648 C0.012565445,1.2416 1.15602094,0.0128 2.56335079,0.0128 L18.4460733,0.0128 C19.8534031,0.0128 20.9968586,1.2544 20.9968586,2.7648 L20.9968586,13.2352 C20.9968586,14.7584 19.8534031,15.9872 18.4460733,15.9872 L2.56335079,15.9872 Z M0.703664921,13.3632 C0.703664921,14.3872 1.48272251,15.2192 2.43769634,15.2192 L18.4963351,15.2192 C19.4513089,15.2192 20.217801,14.3872 20.217801,13.3632 L20.217801,5.12 L0.703664921,5.12 L0.703664921,13.3632 Z M2.43769634,0.7936 C1.48272251,0.7936 0.703664921,1.6256 0.703664921,2.6496 L0.703664921,4.3136 L20.217801,4.3136 L20.217801,2.6496 C20.217801,1.6256 19.4513089,0.7936 18.4963351,0.7936 L2.43769634,0.7936 Z" id="Shape"></path>
                <path d="M2.99057592,7.9104 C2.77696335,7.9104 2.61361257,7.7312 2.61361257,7.5008 C2.61361257,7.2704 2.77696335,7.0912 2.99057592,7.0912 L10.8942408,7.0912 C11.095288,7.0912 11.2712042,7.2832 11.2712042,7.5008 C11.2712042,7.7312 11.1078534,7.9104 10.8942408,7.9104 L2.99057592,7.9104 Z M16.2722513,10.304 C16.0712042,10.304 15.895288,10.112 15.895288,9.8944 C15.895288,9.664 16.0586387,9.4848 16.2722513,9.4848 L17.9560209,9.4848 C18.1570681,9.4848 18.3329843,9.6768 18.3329843,9.8944 C18.3329843,10.1248 18.1696335,10.304 17.9560209,10.304 L16.2722513,10.304 Z M16.2722513,12.16 C16.0712042,12.16 15.895288,11.968 15.895288,11.7504 C15.895288,11.52 16.0586387,11.3408 16.2722513,11.3408 L17.9560209,11.3408 C18.1570681,11.3408 18.3329843,11.5328 18.3329843,11.7504 C18.3329843,11.9808 18.1696335,12.16 17.9560209,12.16 L16.2722513,12.16 Z" id="Shape"></path>
            </g>
        </g>
    </g>
</svg>