<?xml version="1.0" encoding="UTF-8"?>
<svg width="21px" height="18px" viewBox="0 0 21 18" version="1.1" xmlns="http://www.w3.org/2000/svg" xmlns:xlink="http://www.w3.org/1999/xlink">
    <!-- Generator: Sketch 52.5 (67469) - http://www.bohemiancoding.com/sketch -->
    <title>navicon_user</title>
    <desc>Created with Sketch.</desc>
    <g id="Mercury" stroke="none" stroke-width="1" fill="none" fill-rule="evenodd">
        <g id="Artboard" transform="translate(-220.000000, -554.000000)" fill="#FFFFFF" fill-rule="nonzero">
            <g id="navicon_user" transform="translate(220.000000, 554.000000)">
                <path d="M14.8870248,9.6691048 C16.6248267,8.81803493 17.8131772,7.10382969 17.8131772,5.12632533 C17.8131772,2.30144541 15.3901307,0.0116528384 12.4014149,0.0116528384 C9.41255347,0.0116528384 6.98952772,2.30154367 6.98952772,5.12632533 C6.98952772,7.0800917 8.14914356,8.77741703 9.85297129,9.63874454 C6.23379802,10.6617576 3.55016436,13.8587817 3.64000693,17.4936616 C3.64000693,18.2101245 4.66484851,18.1116157 4.66484851,17.52919 C4.66484851,13.5041266 8.11741485,10.2410961 12.3763812,10.2410961 C16.6352228,10.2410961 20.0878099,13.5042249 20.0878099,17.52919 C20.0878099,18.017548 20.9874624,17.9438188 20.9874624,17.4936616 C21.0722941,13.8932882 18.4482921,10.7250328 14.8870248,9.66912445 L14.8870248,9.6691048 Z M12.313901,9.29593886 C12.2093584,9.29593886 12.1056683,9.2999869 12.0018743,9.30360262 C9.74065248,9.12379913 7.96444752,7.33342795 7.96444752,5.14984716 C7.96444752,2.84696725 9.93971584,0.980233624 12.3763812,0.980233624 C14.8130465,0.980233624 16.8983881,2.8470655 16.8983881,5.14986681 C16.8983881,7.34368559 15.0056228,9.14052183 12.7197,9.3059214 C12.584536,9.29956907 12.4492316,9.29624717 12.313901,9.29595852 L12.313901,9.29593886 Z M6.84953465,9.88526201 C6.85656238,9.88526201 6.86346535,9.88575328 6.8704099,9.88575328 C7.50581584,9.88575328 7.51955941,8.91023581 6.84953465,8.91023581 C6.83240198,8.91023581 6.81547723,8.90933188 6.79832376,8.90911572 L6.79736733,8.89070306 C6.70816931,8.89070306 6.62001089,8.89424017 6.53197723,8.89744323 C4.63771485,8.75568341 3.05961683,7.35911135 3.05961683,5.54227074 C3.05961683,3.62462227 4.81729604,2.07017686 6.84953465,2.07017686 C7.52064059,2.07017686 7.34380396,1.26355677 6.65003465,1.26355677 C4.15706436,1.26355677 2.1362198,3.17045633 2.1362198,5.52254148 C2.1362198,7.08575109 3.12656733,8.49731659 4.52231881,9.26911572 C1.75478911,10.2265939 -0.0691128713,12.8853668 0.00349306931,15.8208013 C0.00349306931,16.417631 0.968307921,16.3354323 0.968307921,15.8503755 C0.968307921,12.4987205 3.29733267,9.88573362 6.84955545,9.88573362 L6.84955545,9.88524236 L6.84953465,9.88526201 Z" id="Shape"></path>
            </g>
        </g>
    </g>
</svg>