<?xml version="1.0" encoding="UTF-8"?>
<svg width="18px" height="16px" viewBox="0 0 18 16" version="1.1" xmlns="http://www.w3.org/2000/svg" xmlns:xlink="http://www.w3.org/1999/xlink">
    <!-- Generator: Sketch 52.5 (67469) - http://www.bohemiancoding.com/sketch -->
    <title>navicon_shuju</title>
    <desc>Created with Sketch.</desc>
    <g id="Mercury" stroke="none" stroke-width="1" fill="none" fill-rule="evenodd">
        <g id="Artboard" transform="translate(-221.000000, -735.000000)" fill="#FFFFFF" fill-rule="nonzero">
            <g id="navicon_shuju" transform="translate(221.000000, 735.000000)">
                <polygon id="Shape" points="14.2873296 0.00371638142 15.6417996 1.33038631 13.4212851 3.45304645 11.3970668 1.69398533 7.09191982 6.0474132 4.71024722 4.01322249 0.02744098 8.50417604 1.11505791 9.57533496 4.75055679 6.03757457 7.04661915 8.04228851 11.5028419 3.60044988 13.4363987 5.32508557 16.7244454 2.39172616 17.9933051 3.60046944 17.9983563 0.000117359413"></polygon>
                <polygon id="Shape" points="0.00725612472 11.5750611 1.62360802 11.5750611 1.62360802 15.9972225 0.00725612472 15.9972225"></polygon>
                <polygon id="Shape" points="2.63571715 9.83548166 4.25206904 9.83548166 4.25206904 15.9972029 2.63571715 15.9972029 2.63571715 9.83548166"></polygon>
                <polygon id="Shape" points="5.35471938 10.7495159 6.97107127 10.7495159 6.97107127 15.9972616 5.35471938 15.9972616 5.35471938 10.7495159"></polygon>
                <polygon id="Shape" points="8.10402895 9.39325183 9.72038085 9.39325183 9.72038085 15.9972616 8.10402895 15.9972616 8.10402895 9.39325183"></polygon>
                <polygon id="Shape" points="10.8230512 6.71022005 12.4394031 6.71022005 12.4394031 15.9972616 10.8230512 15.9972616"></polygon>
                <polygon id="Shape" points="13.5723007 8.95094377 15.1886526 8.95094377 15.1886526 15.9972029 13.5723007 15.9972029"></polygon>
                <polygon id="Shape" points="16.291343 5.82566259 17.9076949 5.82566259 17.9076949 15.9972029 16.291343 15.9972029"></polygon>
            </g>
        </g>
    </g>
</svg>