<?xml version="1.0" encoding="UTF-8"?>
<svg width="20px" height="20px" viewBox="0 0 20 20" version="1.1" xmlns="http://www.w3.org/2000/svg" xmlns:xlink="http://www.w3.org/1999/xlink">
    <!-- Generator: Sketch 52.5 (67469) - http://www.bohemiancoding.com/sketch -->
    <title>navicon_zhifu</title>
    <desc>Created with Sketch.</desc>
    <g id="Mercury" stroke="none" stroke-width="1" fill="none" fill-rule="evenodd">
        <g id="Artboard" transform="translate(-220.000000, -372.000000)" fill="#FFFFFF" fill-rule="nonzero">
            <g id="navicon_zhifu" transform="translate(220.000000, 372.000000)">
                <path d="M2.06270101,6.50273225 L4.19653396,1.47516002 C4.35564906,1.10001977 4.65728356,0.803461235 5.03506995,0.650735093 C5.41285634,0.498008951 5.83584243,0.501628107 6.21096019,0.660796253 C6.48224824,0.775706487 6.79550351,0.901608126 7.16871194,1.04599532 C7.36256049,1.12093677 7.56190475,1.19737705 7.82220141,1.29580016 C8.48268541,1.54660422 8.74248244,1.64552693 8.90285714,1.70897735 L10.1084153,0.498922717 C10.7683997,-0.160562061 11.8440593,-0.155565972 12.5105386,0.511412951 L17.0989539,5.09982827 C17.4836534,5.48452773 17.648025,6.00462141 17.5920687,6.50273225 L18.9929742,6.50273225 C19.5448278,6.50273225 19.9921936,6.95009798 19.9921936,7.50195159 L19.9921936,18.9929742 C19.9921936,19.5448279 19.5448279,19.9921936 18.9929742,19.9921936 L1.00702576,19.9921936 C0.455172143,19.9921936 0.00780639344,19.5448279 0.00780639344,18.9929742 L0.00780639344,7.50195159 C0.00780640638,6.95009798 0.455172152,6.50273225 1.00702576,6.50273225 L2.06270101,6.50273225 Z M3.20930522,6.50273225 L4.12508977,6.50273225 L8.08749415,2.52683841 L7.44749415,2.2835285 C7.18519906,2.18410618 6.98335674,2.10716628 6.78651054,2.030726 C6.45505203,1.90313979 6.12560269,1.77039402 5.7982826,1.63253707 C5.55394898,1.52897831 5.27192159,1.64304172 5.16827478,1.88733801 L3.20930522,6.50273225 Z M5.75831382,6.50273225 L16.4129899,6.50273225 C16.493941,6.29805763 16.4452143,6.06483728 16.2890867,5.90969555 L11.7006714,1.32128026 C11.4884401,1.10643664 11.1422648,1.10420036 10.9272756,1.31628415 L5.75831382,6.50273225 Z M1.00702576,7.50195159 L1.00702576,18.9929742 L18.9929742,18.9929742 L18.9929742,7.50195159 L1.00702576,7.50195159 Z M14.9960968,14.9960968 C13.8923896,14.9960968 12.9976581,14.1013653 12.9976581,12.9976581 C12.9976581,11.8939509 13.8923896,10.9992194 14.9960968,10.9992194 C16.099804,10.9992194 16.9945355,11.8939509 16.9945355,12.9976581 C16.9945355,14.1013653 16.099804,14.9960968 14.9960968,14.9960968 Z M14.9960968,13.9968774 C15.3530835,13.9968775 15.6829528,13.8064273 15.8614462,13.4972678 C16.0399395,13.1881082 16.0399395,12.8072079 15.8614462,12.4980484 C15.6829528,12.1888888 15.3530835,11.9984387 14.9960968,11.9984387 C14.4442432,11.9984387 13.9968775,12.4458045 13.9968775,12.9976581 C13.9968775,13.5495117 14.4442432,13.9968774 14.9960968,13.9968774 Z" id="Shape"></path>
            </g>
        </g>
    </g>
</svg>